<svg width="375" height="303" viewBox="0 0 375 303" fill="none" xmlns="http://www.w3.org/2000/svg">
<path d="M407.471 314.385C407.471 252.659 382.951 193.462 339.304 149.816C295.658 106.169 236.461 81.6491 174.736 81.6491C113.01 81.6491 53.813 106.169 10.1667 149.816C-33.4797 193.462 -58 252.659 -58 314.385L174.735 314.385H407.471Z" fill="#F1F0F5"/>
<path fill-rule="evenodd" clip-rule="evenodd" d="M257.023 78.6857C257.023 78.6857 346.289 70.8277 352.129 70.6576C357.969 70.4875 358.852 73.107 358.852 73.107C358.852 73.107 342.181 150.837 341.332 155.022C340.483 159.206 338.989 162.37 338.989 162.37C338.989 162.37 293.592 179.072 292.438 179.242C291.741 179.342 291.336 179.781 290.922 180.23C290.629 180.546 290.332 180.868 289.925 181.079C288.906 181.59 286.903 183.937 285.918 185.093C285.273 185.826 286.318 186.968 287.42 188.174C288.058 188.872 288.715 189.591 289.076 190.264C290.061 192.101 290.74 195.265 290.74 199.279C290.74 203.017 287.265 206.46 285.17 208.537C285.015 208.69 284.868 208.836 284.73 208.974C283.381 210.325 282.648 211.985 282.054 213.33C281.766 213.983 281.51 214.562 281.233 214.995C280.418 216.356 278.754 217.172 270.232 217.512C261.709 217.852 257.193 211.831 256.209 209.994C255.465 208.607 255.38 206.929 255.309 205.546C255.287 205.097 255.266 204.68 255.224 204.313C255.212 204.212 255.201 204.11 255.189 204.007C255.03 202.576 254.85 200.968 254.375 200.81C254.121 200.725 253.328 200.226 252.431 199.663C251.529 199.096 250.523 198.463 249.859 198.122C249.364 197.868 248.845 197.57 248.353 197.289C247.531 196.818 246.787 196.392 246.362 196.285C245.791 196.142 246.754 203.534 247.58 209.875C247.737 211.084 247.89 212.255 248.026 213.328C248.841 220.03 251.014 228.874 252.847 234.555C253.512 236.615 254.636 240.436 255.919 244.796C258.175 252.464 260.922 261.799 262.524 266.158C263.473 268.775 264.989 272.623 266.489 276.432C268.908 282.574 271.287 288.613 271.182 289.222C271.075 289.866 270.643 290.498 270.296 291.004C270.094 291.299 269.921 291.551 269.858 291.739C269.809 291.885 269.898 292.141 270.017 292.487C270.314 293.346 270.802 294.76 269.858 296.433C268.534 298.747 263.509 302.421 261.845 303.271C260.67 303.848 261.154 304.933 261.84 306.468C262.125 307.106 262.444 307.822 262.694 308.612C263.244 310.426 263.732 312.536 263.939 314.385H120.24C120.29 313.605 120.436 312.973 120.601 312.258C120.838 311.23 121.115 310.029 121.206 307.965C121.266 306.606 121.369 305.515 121.469 304.452C121.651 302.506 121.826 300.653 121.716 297.42C121.619 294.556 121.744 292.506 121.933 289.424C122.074 287.125 122.25 284.251 122.395 280.037C122.492 276.907 122.678 273.222 122.87 269.409C123.284 261.205 123.727 252.41 123.38 247.278C123.201 244.461 123.066 240.984 122.94 237.739C122.729 232.322 122.543 227.547 122.225 227.547C122.029 227.547 121.518 227.648 120.838 227.781C119.75 227.995 118.232 228.293 116.894 228.398C115.828 228.481 112.393 229.408 108.973 230.33C105.421 231.288 101.885 232.242 101.038 232.242C99.7169 232.242 98.0754 232.778 95.3658 233.662C94.6618 233.892 93.8857 234.146 93.0244 234.419C88.8481 235.746 88.2029 235.576 85.5205 233.569C82.872 231.562 79.5445 220.88 78.6956 211.185C77.8468 201.49 79.6803 189.107 81.6836 183.597C83.6869 178.086 84.3661 175.398 84.3661 175.398C84.3661 175.398 84.5358 173.697 84.8753 172.541C84.9787 172.189 85.1576 171.758 85.3613 171.267C85.8266 170.146 86.4212 168.714 86.5393 167.2C86.607 166.332 86.7772 165.945 86.8951 165.677C87.0728 165.274 87.1313 165.141 86.5393 164.036C85.7945 162.693 87.0282 160.277 87.8118 158.743C88.0999 158.179 88.3271 157.734 88.3727 157.505C88.4102 157.317 88.4559 157.132 88.5062 156.927C88.684 156.203 88.9195 155.245 89.0518 153.151C89.149 151.632 89.3017 150.159 89.4782 148.456C89.6102 147.182 89.7554 145.781 89.9007 144.136C90.0845 142.055 90.5569 140.512 90.9785 139.136C91.3356 137.969 91.6563 136.922 91.7342 135.768C91.8242 134.433 91.8665 133.949 91.8863 133.465C91.9039 133.036 91.9039 132.606 91.9039 131.583C91.9039 130.39 92.3122 129.646 92.7873 128.78C93.1789 128.067 93.6158 127.271 93.9073 126.072C94.2478 124.672 95.0615 123.356 95.8038 122.156C96.4676 121.083 97.0744 120.102 97.2347 119.235C97.4184 118.241 98.0391 117.835 98.6509 117.434C99.1703 117.094 99.6832 116.759 99.917 116.071C100.176 115.256 100.889 114.632 101.621 113.991C102.233 113.456 102.858 112.909 103.245 112.227C103.777 111.249 104.614 110.707 105.452 110.164C105.897 109.876 106.342 109.587 106.742 109.234C107.896 108.213 110.239 106.887 114.246 104.709C118.252 102.566 133.09 97.8718 133.09 97.8718L133.26 97.1914C133.333 96.9006 134.168 96.7652 135.257 96.5886C136.717 96.352 138.632 96.0416 139.779 95.1845C141.603 93.8222 141.626 93.6997 142.127 91.0469C142.177 90.7851 142.231 90.4985 142.292 90.1837C142.971 86.6799 148.981 83.3461 148.981 83.3461C148.981 83.3461 149.66 82.5297 148.981 80.1825C148.696 79.2111 148.351 77.8198 147.961 76.2478C147.422 74.0765 146.799 71.5606 146.129 69.3308C144.974 65.4868 143.141 63.99 143.141 63.99C143.141 63.99 142.496 64.5003 141.986 64.8405C141.511 65.1806 140.662 64.6706 138.998 63.3439C137.335 61.9832 135.162 58.8194 133.837 56.8123C132.513 54.8053 131.834 51.9818 131.664 49.8047C131.495 47.6275 134.992 47.6275 134.992 47.6275C133.498 46.2668 131.664 41.2662 129.661 29.5641C127.658 17.862 142.258 4.35696 149.185 1.97571C157.559 -0.900988 160.501 -0.190389 166.664 1.29861C168.372 1.71126 170.328 2.18368 172.715 2.65611C183.716 4.83325 186.059 17.0117 186.399 19.529C186.738 22.0123 188.572 29.8704 188.741 30.3807C188.911 30.8569 189.896 30.5507 190.405 29.8703C190.914 29.224 191.899 29.2239 192.748 30.2104C193.563 31.2309 195.091 44.0897 194.242 46.437C193.393 48.7842 192.239 49.1243 192.239 49.1243C192.239 49.1243 191.39 54.125 190.405 57.969C189.421 61.813 191.254 73.0048 191.254 73.0048C191.254 73.0048 191.763 74.5017 192.748 74.1615C193.529 73.9006 194.989 74.1398 196.225 74.3423C196.6 74.4038 196.955 74.462 197.264 74.5016C197.948 74.5719 198.641 74.7873 199.334 75.0026C199.982 75.2043 200.63 75.4058 201.271 75.488C201.941 75.5741 202.532 76.087 203.169 76.6389C203.791 77.1776 204.455 77.7535 205.277 78.0055C205.994 78.2254 206.648 78.4705 207.347 78.7327C208.271 79.079 209.275 79.4552 210.608 79.8424C211.854 80.2042 212.389 80.7968 212.842 81.298C213.241 81.7394 213.576 82.11 214.275 82.1897C214.975 82.2676 216.053 82.3812 217.159 82.4979C218.467 82.6358 219.815 82.7779 220.625 82.87C220.882 82.8987 221.209 82.9418 221.591 82.992C223.478 83.2403 226.691 83.6631 229.317 83.3802C231.318 83.1646 233.796 84.3698 236.277 85.576C237.71 86.2731 239.145 86.9706 240.488 87.3943C244.155 88.5509 252.338 90.7281 252.338 90.7281L253.187 86.7141C254.341 80.6929 257.023 78.6857 257.023 78.6857ZM118.117 191.795C118.66 191.795 121.546 192.067 121.546 192.067C121.546 192.067 121.987 184.379 120.358 182.1C120.358 182.1 118.117 189.89 118.117 190.604C118.117 190.895 118.032 191.146 117.967 191.342C117.871 191.627 117.815 191.795 118.117 191.795Z" fill="#C6C5CE"/>
<g filter="url(#filter0_d_2201_1355)">
<rect x="390.478" y="219.074" width="137.425" height="56.1521" rx="6" fill="white"/>
</g>
<path d="M-51.3942 240.169C-51.3942 252.808 -46.3734 264.93 -37.4363 273.867C-28.4992 282.804 -16.3779 287.825 -3.73887 287.825C8.90012 287.825 21.0214 282.804 29.9586 273.867C38.8957 264.93 43.9165 252.808 43.9165 240.169L-3.73886 240.169L-51.3942 240.169Z" fill="#ACABB7"/>
<path d="M368.291 231.489C368.291 225.316 365.839 219.397 361.475 215.032C357.11 210.667 351.19 208.215 345.018 208.215C338.845 208.215 332.926 210.667 328.561 215.032C324.196 219.397 321.744 225.316 321.744 231.489L345.018 231.489H368.291Z" fill="#C6C5CE"/>
<g filter="url(#filter1_d_2201_1355)">
<rect x="11.4827" y="94.8308" width="132.289" height="59.7846" rx="6" fill="white"/>
</g>
<circle cx="39.8287" cy="125.238" r="14.9462" fill="#C6C5CE"/>
<rect opacity="0.4" x="65.0825" y="114.415" width="65.9692" height="6.18462" rx="3.09231" fill="#C6C5CE"/>
<rect opacity="0.4" x="65.0825" y="128.846" width="38.1385" height="6.18462" rx="3.09231" fill="#C6C5CE"/>
<g filter="url(#filter2_d_2201_1355)">
<rect x="348.544" y="275.215" width="132.289" height="59.7846" rx="6" fill="white"/>
</g>
<circle cx="376.891" cy="305.623" r="14.9462" fill="#C6C5CE"/>
<defs>
<filter id="filter0_d_2201_1355" x="370.478" y="209.074" width="177.425" height="96.1521" filterUnits="userSpaceOnUse" color-interpolation-filters="sRGB">
<feFlood flood-opacity="0" result="BackgroundImageFix"/>
<feColorMatrix in="SourceAlpha" type="matrix" values="0 0 0 0 0 0 0 0 0 0 0 0 0 0 0 0 0 0 127 0" result="hardAlpha"/>
<feOffset dy="10"/>
<feGaussianBlur stdDeviation="10"/>
<feColorMatrix type="matrix" values="0 0 0 0 0.4795 0 0 0 0 0.468125 0 0 0 0 0.525 0 0 0 0.1 0"/>
<feBlend mode="normal" in2="BackgroundImageFix" result="effect1_dropShadow_2201_1355"/>
<feBlend mode="normal" in="SourceGraphic" in2="effect1_dropShadow_2201_1355" result="shape"/>
</filter>
<filter id="filter1_d_2201_1355" x="-8.51733" y="84.8308" width="172.289" height="99.7846" filterUnits="userSpaceOnUse" color-interpolation-filters="sRGB">
<feFlood flood-opacity="0" result="BackgroundImageFix"/>
<feColorMatrix in="SourceAlpha" type="matrix" values="0 0 0 0 0 0 0 0 0 0 0 0 0 0 0 0 0 0 127 0" result="hardAlpha"/>
<feOffset dy="10"/>
<feGaussianBlur stdDeviation="10"/>
<feColorMatrix type="matrix" values="0 0 0 0 0.4795 0 0 0 0 0.468125 0 0 0 0 0.525 0 0 0 0.1 0"/>
<feBlend mode="normal" in2="BackgroundImageFix" result="effect1_dropShadow_2201_1355"/>
<feBlend mode="normal" in="SourceGraphic" in2="effect1_dropShadow_2201_1355" result="shape"/>
</filter>
<filter id="filter2_d_2201_1355" x="328.544" y="265.215" width="172.289" height="99.7846" filterUnits="userSpaceOnUse" color-interpolation-filters="sRGB">
<feFlood flood-opacity="0" result="BackgroundImageFix"/>
<feColorMatrix in="SourceAlpha" type="matrix" values="0 0 0 0 0 0 0 0 0 0 0 0 0 0 0 0 0 0 127 0" result="hardAlpha"/>
<feOffset dy="10"/>
<feGaussianBlur stdDeviation="10"/>
<feColorMatrix type="matrix" values="0 0 0 0 0.4795 0 0 0 0 0.468125 0 0 0 0 0.525 0 0 0 0.1 0"/>
<feBlend mode="normal" in2="BackgroundImageFix" result="effect1_dropShadow_2201_1355"/>
<feBlend mode="normal" in="SourceGraphic" in2="effect1_dropShadow_2201_1355" result="shape"/>
</filter>
</defs>
</svg>
