<svg width="986" height="465" viewBox="0 0 986 465" fill="none" xmlns="http://www.w3.org/2000/svg">
<path d="M784.726 464.534C784.726 371.809 747.891 282.881 682.325 217.315C616.758 151.748 527.83 114.913 435.105 114.913C342.38 114.913 253.453 151.748 187.886 217.315C122.319 282.881 85.4844 371.809 85.4844 464.534L435.105 464.534H784.726Z" fill="#F1F0F5"/>
<path d="M13.3395 392.945C13.3395 411.931 20.8819 430.14 34.3074 443.566C47.733 456.992 65.9419 464.534 84.9285 464.534C103.915 464.534 122.124 456.992 135.55 443.566C148.975 430.14 156.518 411.932 156.518 392.945L84.9285 392.945L13.3395 392.945Z" fill="#ACABB7"/>
<path d="M793.606 286.394C793.606 277.121 789.922 268.229 783.366 261.672C776.809 255.115 767.916 251.432 758.644 251.432C749.371 251.432 740.478 255.115 733.922 261.672C727.365 268.229 723.682 277.121 723.682 286.394L758.644 286.394H793.606Z" fill="#C6C5CE"/>
<path fill-rule="evenodd" clip-rule="evenodd" d="M571.708 117.228C571.708 117.228 704.932 105.521 713.648 105.267C722.364 105.014 723.681 108.917 723.681 108.917C723.681 108.917 698.8 224.721 697.533 230.955C696.266 237.189 694.037 241.902 694.037 241.902C694.037 241.902 626.284 266.786 624.561 267.039C623.522 267.188 622.917 267.842 622.299 268.51C621.863 268.982 621.419 269.462 620.811 269.776C619.291 270.537 616.301 274.033 614.832 275.757C613.869 276.848 615.428 278.55 617.073 280.347C618.025 281.386 619.006 282.457 619.545 283.46C621.014 286.197 622.028 290.91 622.028 296.89C622.028 302.46 616.842 307.59 613.714 310.683C613.483 310.912 613.264 311.129 613.058 311.334C611.045 313.348 609.951 315.821 609.064 317.825C608.634 318.797 608.253 319.659 607.839 320.305C606.623 322.332 604.14 323.548 591.42 324.055C578.701 324.562 571.961 315.591 570.491 312.855C569.382 310.788 569.255 308.288 569.15 306.227C569.116 305.559 569.084 304.937 569.022 304.391C569.005 304.241 568.988 304.088 568.971 303.934C568.732 301.803 568.464 299.407 567.755 299.171C567.376 299.045 566.192 298.301 564.854 297.462C563.508 296.618 562.007 295.676 561.015 295.167C560.276 294.788 559.501 294.345 558.768 293.926C557.541 293.224 556.43 292.589 555.796 292.43C554.944 292.218 556.381 303.23 557.614 312.677C557.849 314.478 558.076 316.223 558.279 317.821C559.495 327.805 562.738 340.982 565.475 349.446C566.467 352.514 568.145 358.206 570.059 364.702C573.427 376.126 577.526 390.034 579.917 396.528C581.333 400.427 583.595 406.161 585.834 411.835C589.445 420.985 592.995 429.982 592.839 430.889C592.679 431.85 592.033 432.79 591.516 433.544C591.214 433.984 590.956 434.36 590.863 434.64C590.79 434.858 590.922 435.239 591.1 435.754C591.543 437.034 592.272 439.141 590.863 441.634C588.887 445.08 581.386 450.554 578.903 451.821C577.15 452.68 577.873 454.297 578.896 456.583C579.321 457.534 579.798 458.601 580.17 459.777C580.625 461.275 581.052 462.907 581.394 464.534H368.26C368.571 463.141 368.892 461.45 369.008 458.814C369.098 456.79 369.251 455.164 369.4 453.579C369.673 450.681 369.933 447.92 369.769 443.104C369.624 438.836 369.811 435.783 370.093 431.19C370.303 427.765 370.566 423.484 370.782 417.206C370.927 412.542 371.204 407.052 371.491 401.372C372.109 389.15 372.771 376.047 372.252 368.4C371.986 364.203 371.784 359.025 371.596 354.189C371.281 346.119 371.004 339.006 370.529 339.006C370.237 339.006 369.473 339.155 368.459 339.354C366.835 339.673 364.569 340.117 362.573 340.273C360.982 340.397 355.855 341.777 350.75 343.152C345.449 344.579 340.173 346 338.908 346C336.937 346 334.487 346.798 330.443 348.116C329.392 348.458 328.234 348.836 326.948 349.243C320.715 351.22 319.753 350.966 315.749 347.976C311.797 344.986 306.83 329.072 305.564 314.628C304.297 300.185 307.033 281.737 310.023 273.527C313.013 265.316 314.026 261.312 314.026 261.312C314.026 261.312 314.28 258.779 314.786 257.055C314.941 256.531 315.208 255.889 315.512 255.158C316.206 253.488 317.094 251.355 317.27 249.099C317.371 247.805 317.625 247.229 317.801 246.83C318.066 246.229 318.153 246.031 317.27 244.385C316.158 242.384 318 238.785 319.169 236.499C319.599 235.658 319.938 234.995 320.006 234.655C320.062 234.375 320.13 234.098 320.205 233.794C320.471 232.716 320.822 231.288 321.02 228.168C321.165 225.906 321.393 223.71 321.656 221.173C321.853 219.276 322.07 217.188 322.286 214.737C322.561 211.637 323.266 209.339 323.895 207.288C324.428 205.55 324.907 203.99 325.023 202.27C325.157 200.281 325.22 199.561 325.25 198.839C325.276 198.2 325.276 197.56 325.276 196.036C325.276 194.258 325.885 193.15 326.595 191.86C327.179 190.798 327.831 189.612 328.266 187.826C328.774 185.739 329.989 183.779 331.097 181.992C332.087 180.393 332.993 178.931 333.232 177.639C333.506 176.159 334.433 175.554 335.346 174.957C336.121 174.45 336.886 173.95 337.235 172.926C337.622 171.711 338.686 170.782 339.779 169.827C340.692 169.029 341.625 168.214 342.202 167.199C342.996 165.742 344.245 164.934 345.496 164.125C346.16 163.696 346.824 163.266 347.421 162.739C349.144 161.219 352.641 159.242 358.62 155.999C364.6 152.806 386.745 145.812 386.745 145.812L386.998 144.798C387.106 144.365 388.353 144.163 389.979 143.9C392.157 143.548 395.016 143.085 396.728 141.808C399.449 139.779 399.483 139.596 400.232 135.644C400.306 135.254 400.387 134.827 400.478 134.358C401.491 129.138 410.46 124.171 410.46 124.171C410.46 124.171 411.474 122.955 410.46 119.458C410.035 118.011 409.52 115.938 408.938 113.596C408.134 110.361 407.203 106.613 406.204 103.291C404.481 97.5639 401.745 95.3339 401.745 95.3339C401.745 95.3339 400.782 96.0941 400.021 96.6009C399.312 97.1077 398.045 96.3478 395.562 94.3713C393.079 92.344 389.836 87.6305 387.86 84.6404C385.883 81.6502 384.87 77.4438 384.616 74.2002C384.363 70.9567 389.582 70.9566 389.582 70.9566C387.353 68.9294 384.616 61.4794 381.626 44.0453C378.637 26.6112 400.427 6.4911 410.764 2.94346C423.263 -1.34231 427.653 -0.283646 436.852 1.9347C439.401 2.54947 442.319 3.25331 445.882 3.95714C462.301 7.20069 465.797 25.3444 466.304 29.0948C466.811 32.7944 469.547 44.5016 469.801 45.2619C470.054 45.9714 471.524 45.5151 472.284 44.5015C473.044 43.5386 474.513 43.5385 475.78 45.0082C476.996 46.5286 479.277 65.6859 478.01 69.1829C476.743 72.6798 475.02 73.1865 475.02 73.1865C475.02 73.1865 473.753 80.6368 472.284 86.3636C470.814 92.0905 473.551 108.764 473.551 108.764C473.551 108.764 474.311 110.994 475.78 110.488C476.946 110.099 479.125 110.455 480.969 110.757C481.53 110.849 482.059 110.935 482.52 110.994C483.541 111.099 484.575 111.42 485.609 111.741C486.577 112.041 487.544 112.341 488.5 112.464C489.5 112.592 490.383 113.356 491.333 114.178C492.261 114.981 493.253 115.839 494.479 116.215C495.549 116.542 496.525 116.907 497.569 117.298C498.948 117.814 500.445 118.374 502.435 118.951C504.294 119.49 505.093 120.373 505.769 121.12C506.365 121.777 506.864 122.329 507.908 122.448C508.953 122.564 510.562 122.734 512.213 122.907C514.165 123.113 516.176 123.325 517.384 123.462C517.768 123.504 518.257 123.569 518.827 123.644C521.642 124.013 526.438 124.643 530.357 124.222C533.344 123.901 537.042 125.696 540.744 127.493C542.884 128.532 545.024 129.571 547.029 130.202C552.502 131.925 564.714 135.169 564.714 135.169L565.981 129.189C567.704 120.218 571.708 117.228 571.708 117.228ZM364.397 285.741C365.208 285.741 369.515 286.146 369.515 286.146C369.515 286.146 370.174 274.692 367.742 271.297C367.742 271.297 364.397 282.903 364.397 283.967C364.397 284.4 364.271 284.774 364.173 285.066C364.03 285.491 363.946 285.741 364.397 285.741Z" fill="#C6C5CE"/>
<g filter="url(#filter0_d_2201_230)">
<rect x="20" y="158.199" width="230.861" height="104.331" rx="6" fill="white"/>
</g>
<g filter="url(#filter1_d_2201_230)">
<rect x="759.197" y="321.356" width="206.443" height="84.353" rx="6" fill="white"/>
</g>
<circle cx="803.04" cy="365.197" r="21.6432" fill="#C6C5CE"/>
<circle cx="86.0397" cy="210.92" r="21.6432" fill="#C6C5CE"/>
<rect opacity="0.4" x="840.221" y="352.433" width="95.452" height="6.65944" rx="3.32972" fill="#C6C5CE"/>
<rect opacity="0.4" x="123.221" y="198.156" width="95.452" height="6.65944" rx="3.32972" fill="#C6C5CE"/>
<rect opacity="0.4" x="840.221" y="372.412" width="54.3855" height="6.65944" rx="3.32972" fill="#C6C5CE"/>
<rect opacity="0.4" x="123.221" y="218.134" width="54.3855" height="6.65944" rx="3.32972" fill="#C6C5CE"/>
<defs>
<filter id="filter0_d_2201_230" x="0" y="148.199" width="270.861" height="144.331" filterUnits="userSpaceOnUse" color-interpolation-filters="sRGB">
<feFlood flood-opacity="0" result="BackgroundImageFix"/>
<feColorMatrix in="SourceAlpha" type="matrix" values="0 0 0 0 0 0 0 0 0 0 0 0 0 0 0 0 0 0 127 0" result="hardAlpha"/>
<feOffset dy="10"/>
<feGaussianBlur stdDeviation="10"/>
<feColorMatrix type="matrix" values="0 0 0 0 0.4795 0 0 0 0 0.468125 0 0 0 0 0.525 0 0 0 0.1 0"/>
<feBlend mode="normal" in2="BackgroundImageFix" result="effect1_dropShadow_2201_230"/>
<feBlend mode="normal" in="SourceGraphic" in2="effect1_dropShadow_2201_230" result="shape"/>
</filter>
<filter id="filter1_d_2201_230" x="739.197" y="311.356" width="246.443" height="124.353" filterUnits="userSpaceOnUse" color-interpolation-filters="sRGB">
<feFlood flood-opacity="0" result="BackgroundImageFix"/>
<feColorMatrix in="SourceAlpha" type="matrix" values="0 0 0 0 0 0 0 0 0 0 0 0 0 0 0 0 0 0 127 0" result="hardAlpha"/>
<feOffset dy="10"/>
<feGaussianBlur stdDeviation="10"/>
<feColorMatrix type="matrix" values="0 0 0 0 0.4795 0 0 0 0 0.468125 0 0 0 0 0.525 0 0 0 0.1 0"/>
<feBlend mode="normal" in2="BackgroundImageFix" result="effect1_dropShadow_2201_230"/>
<feBlend mode="normal" in="SourceGraphic" in2="effect1_dropShadow_2201_230" result="shape"/>
</filter>
</defs>
</svg>
